<svg xmlns="http://www.w3.org/2000/svg" version="1.1"
     width="1000" height="252"
     viewBox="1.04 0 996.71 252.04">
  <g transform="matrix(1,0,0,1,-0.6060606060606233,0.02239642360783023)">
    <svg viewBox="0 0 396 100" data-background-color="#ffffff" preserveAspectRatio="xMidYMid meet" height="252" width="1000" xmlns="http://www.w3.org/2000/svg">
      <g id="tight-bounds" transform="matrix(1,0,0,1,0.2400000000000091,-0.008887469685646465)"><svg viewBox="0 0 395.52 100.0177749393713" height="100.0177749393713" width="395.52"><g><svg viewBox="0 0 566.5769629574786 143.27408769951862" height="100.0177749393713" width="395.52"><g transform="matrix(1,0,0,1,171.05696295747865,42.21550665627075)"><svg viewBox="0 0 395.52 58.84307438697713" height="58.84307438697713" width="395.52"><g><svg viewBox="0 0 395.52 58.84307438697713" height="58.84307438697713" width="395.52"><g><svg viewBox="0 0 395.52 58.84307438697713" height="58.84307438697713" width="395.52"><g transform="matrix(1,0,0,1,0,0)"><svg width="395.52" viewBox="2.450000047683716 -35.5 242.6300048828125 36.099998474121094" height="58.84307438697713" data-palette-color="#202046"><path d="M15.65 0.6L15.65 0.6Q12.6 0.6 10.18-0.43 7.75-1.45 6.03-3.65 4.3-5.85 3.38-9.28 2.45-12.7 2.45-17.45L2.45-17.45Q2.45-22.2 3.38-25.63 4.3-29.05 6.03-31.25 7.75-33.45 10.18-34.48 12.6-35.5 15.65-35.5L15.65-35.5Q20.1-35.5 22.78-33.58 25.45-31.65 27.05-27.8L27.05-27.8 22.55-25.3Q21.65-28.25 20.03-29.55 18.4-30.85 15.65-30.85L15.65-30.85Q12.1-30.85 10.13-28.4 8.15-25.95 8.15-21.65L8.15-21.65 8.15-13.25Q8.15-8.95 10.13-6.5 12.1-4.05 15.65-4.05L15.65-4.05Q18.45-4.05 20.18-5.45 21.9-6.85 22.85-9.95L22.85-9.95 27.25-7.35Q25.6-3.5 22.85-1.45 20.1 0.6 15.65 0.6ZM51.7 0L51.7-15.45 37.8-15.45 37.8 0 32.5 0 32.5-34.9 37.8-34.9 37.8-20.05 51.7-20.05 51.7-34.9 57-34.9 57 0 51.7 0ZM89.59 0L84.25 0 81.55-9.65 69.8-9.65 67.09 0 61.9 0 72.34-34.9 79.09-34.9 89.59 0ZM80.3-14L77.05-25 75.95-30.1 75.3-30.1 74.2-25 71.09-14 80.3-14ZM112.59-30.25L103.34-30.25 103.34 0 98.04 0 98.04-30.25 88.79-30.25 88.79-34.9 112.59-34.9 112.59-30.25ZM139.99-30.25L130.74-30.25 130.74 0 125.44 0 125.44-30.25 116.19-30.25 116.19-34.9 139.99-34.9 139.99-30.25ZM165.19 0L144.94 0 144.94-34.9 165.19-34.9 165.19-30.25 150.24-30.25 150.24-20.05 163.74-20.05 163.74-15.45 150.24-15.45 150.24-4.65 165.19-4.65 165.19 0ZM177.04-14.25L177.04 0 171.74 0 171.74-34.9 185.54-34.9Q190.04-34.9 192.31-32.23 194.59-29.55 194.59-24.55L194.59-24.55Q194.59-20.5 193.09-18 191.59-15.5 188.59-14.65L188.59-14.65 195.24 0 189.34 0 183.29-14.25 177.04-14.25ZM177.04-18.7L185.09-18.7Q186.99-18.7 187.96-19.68 188.94-20.65 188.94-22.85L188.94-22.85 188.94-26.1Q188.94-28.3 187.96-29.28 186.99-30.25 185.09-30.25L185.09-30.25 177.04-30.25 177.04-18.7ZM219.33 0L201.33 0 201.33-34.9 206.63-34.9 206.63-4.65 219.33-4.65 219.33 0ZM234.33 0L229.03 0 229.03-13.5 218.23-34.9 224.18-34.9 231.43-19.3 232.08-19.3 239.23-34.9 245.08-34.9 234.33-13.5 234.33 0Z" opacity="1" transform="matrix(1,0,0,1,0,0)" fill="#202046" class="undefined-text-0" data-fill-palette-color="primary" id="text-0"></path></svg></g></svg></g></svg></g></svg></g><g><svg viewBox="0 0 143.27408769951862 143.27408769951862" height="143.27408769951862" width="143.27408769951862"><g><svg></svg></g><g id="icon-0"><svg viewBox="0 0 143.27408769951862 143.27408769951862" height="143.27408769951862" width="143.27408769951862"><g><path d="M0 71.637c0-39.564 32.073-71.637 71.637-71.637 39.564 0 71.637 32.073 71.637 71.637 0 39.564-32.073 71.637-71.637 71.637-39.564 0-71.637-32.073-71.637-71.637zM71.637 137.968c36.633 0 66.331-29.697 66.331-66.331 0-36.633-29.697-66.331-66.331-66.33-36.633 0-66.331 29.697-66.33 66.33 0 36.633 29.697 66.331 66.33 66.331z" data-fill-palette-color="accent" fill="#fd4f4f" stroke="transparent"></path><ellipse rx="70.92067341126172" ry="70.92067341126172" cx="71.63704384975931" cy="71.63704384975931" fill="#fd4f4f" stroke="transparent" stroke-width="0" fill-opacity="1" data-fill-palette-color="accent"></ellipse></g><g transform="matrix(1,0,0,1,30.180818426596154,41.170502001473345)"><svg viewBox="0 0 82.91245084632631 60.93308369657193" height="60.93308369657193" width="82.91245084632631"><g>
        <svg xmlns='http://www.w3.org/2000/svg'  version='1.1' x='0' y='0' viewBox='7.552000045776367 18.47899627685547 87.46800231933594 64.28099822998047' enable-background='new 0 0 100 100' xml:space='preserve' height='60.93308369657193' width='82.91245084632631' class='icon-a-0' data-fill-palette-color='quaternary' id='a-0'><path d="M31.805 41.953c0-5.497 2.443-10.57 6.546-14.639-0.238-0.004-0.474-0.013-0.712-0.013-16.615 0-30.087 9.948-30.087 22.221 0 9.36 7.837 17.36 18.926 20.634l-0.585 12.604 8.693-11.016c0 0 1.642 0 3.053 0 7.925 0 15.129-2.267 20.502-5.965C43.185 63.725 31.805 53.826 31.805 41.953z" fill="#ffffff" data-fill-palette-color="quaternary"></path><g fill="#ffffff" data-fill-palette-color="quaternary"><path d="M76.966 82.062l-11.95-15.139h-2.081c-17.693 0-32.089-10.865-32.089-24.223 0-13.355 14.396-24.221 32.089-24.221 17.691 0 32.085 10.866 32.085 24.221 0 9.637-7.348 18.172-18.857 22.078L76.966 82.062zM62.935 22.48c-15.487 0-28.089 9.071-28.089 20.221 0 11.15 12.602 20.223 28.089 20.223h4.021l5.437 6.889-0.369-7.949 1.504-0.443C84.153 58.281 91.02 50.934 91.02 42.701 91.02 31.551 78.421 22.48 62.935 22.48z" fill="#ffffff" data-fill-palette-color="quaternary"></path></g></svg></g></svg></g></svg></g></svg></g></svg></g><defs></defs></svg><rect width="395.52" height="100.0177749393713" fill="none" stroke="none" visibility="hidden"></rect></g></svg></g>
</svg>
